<svg width="172px" height="251px" viewBox="0 0 172 251" version="1.1" xmlns="http://www.w3.org/2000/svg" xmlns:xlink="http://www.w3.org/1999/xlink">
    <title>Group 3</title>
    <g id="Page-1" stroke="none" stroke-width="1" fill="none" fill-rule="evenodd">
        <g id="Group-3" transform="translate(0, 0)" fill="#000000" fill-rule="nonzero">
            <g id="Group" transform="translate(134.5, 213.5) scale(-1, 1) rotate(-180) translate(-134.5, -213.5)translate(97, 176)">
                <path d="M33.266698,74.7139165 C20.4609595,73.1654416 9.4190969,65.3526816 3.70413923,53.8446973 C1.09360301,48.4954201 -3.13509581e-14,43.7092248 -3.13509581e-14,37.4097472 C-3.13509581e-14,27.4502378 3.38664158,18.898433 10.1599247,11.7543326 C17.5682032,3.97676522 26.8109125,0 37.5,0 C47.4835372,0 56.0559737,3.37849081 63.2173095,10.1354724 C71.0136406,17.5259211 75,26.7463856 75,37.4097472 C75,42.6182538 74.3297272,46.419056 72.5305738,50.958903 C67.3800564,64.0857475 55.5620884,73.130249 41.6274694,74.6787239 C37.8880527,75.1010353 36.6533396,75.1010353 33.266698,74.7139165 Z M46.6721543,65.9861486 C51.434619,64.4376737 55.0682032,62.1501538 58.7017874,58.5605074 C62.3000941,54.9708609 64.5578551,51.3460218 66.1453434,46.5598265 C67.2389464,43.3221061 67.2742239,43.0053726 67.2742239,37.4097472 C67.2742239,31.8141218 67.2389464,31.4973883 66.1453434,28.2596679 C64.5578551,23.4734726 62.3000941,19.8486335 58.7017874,16.258987 C55.1034807,12.6693405 51.4698965,10.4170133 46.6721543,8.83334576 C43.4619003,7.74237477 43.1091251,7.70718216 37.5,7.70718216 C31.8203198,7.67198954 31.6086548,7.70718216 28.3278457,8.83334576 C23.2831609,10.5929764 20.1787394,12.4933775 16.4746002,16.1182166 C12.6999059,19.8486335 10.5126999,23.3327021 8.85465663,28.2596679 C7.76105362,31.4973883 7.72577611,31.8141218 7.72577611,37.4097472 C7.72577611,43.0053726 7.76105362,43.3221061 8.85465663,46.5598265 C10.4421449,51.3460218 12.6999059,54.9708609 16.2982126,58.5605074 C19.7554092,61.9741908 23.494826,64.3672884 27.6222954,65.7398003 C31.7850423,67.1123122 33.0903104,67.2882753 38.3819379,67.1826974 C42.7916275,67.0771196 43.6735654,66.9363491 46.6721543,65.9861486 Z" id="Shape"></path>
                <path d="M35.8419567,51.9794888 C34.0780809,51.0996735 33.6194732,49.691969 33.6194732,45.1873146 L33.6194732,41.2809346 L29.7036689,41.2809346 C25.1528692,41.2809346 23.7417686,40.8234306 22.8951082,38.9934148 C22.1895579,37.5505176 22.1895579,37.2689767 22.8951082,35.8260796 C23.7417686,33.9960638 25.1528692,33.5385598 29.7036689,33.5385598 L33.6194732,33.5385598 L33.6194732,29.6321798 C33.6194732,25.0923328 34.0780809,23.6846283 35.9125118,22.8400056 C37.3588899,22.1361533 37.6411101,22.1361533 39.0874882,22.8400056 C40.9219191,23.6846283 41.3805268,25.0923328 41.3805268,29.6321798 L41.3805268,33.5385598 L45.2963311,33.5385598 C49.8471308,33.5385598 51.2582314,33.9960638 52.1048918,35.8260796 C52.4223895,36.4595466 52.6693321,37.1633989 52.6693321,37.4097472 C52.6693321,37.6560955 52.4223895,38.3599477 52.1048918,38.9934148 C51.2582314,40.8234306 49.8471308,41.2809346 45.2963311,41.2809346 L41.3805268,41.2809346 L41.3805268,45.1873146 C41.3805268,49.7271616 40.9219191,51.1348661 39.0874882,51.9794888 C37.6411101,52.683341 37.2530574,52.683341 35.8419567,51.9794888 Z" id="Path"></path>
            </g>
            <g id="Group" transform="translate(69, 108.9) scale(-1, 1) rotate(-180) translate(-69, -108.9)translate(0, 0)">
                <path d="M97,0 C100.948843,14.1529621 104.995226,23.3196288 109.13915,27.5 C114.106337,32.5108744 123.72662,37.1310762 138,41.3606054 C138,102.060605 137.9,136.6 136,139.7 C132.8,145 129.6,146.4 120,147 L111.3,147.5 L117.6,173.5 C121,187.8 123.5,199.8 123.1,200.1 C122.8,200.5 107.9,204.2 90,208.4 C72.1,212.7 56.1,216.5 54.3,217 L51.2,217.8 L47,200.1 C44.7,190.4 40.9,174.6 38.6,165 L34.4,147.5 L21.9,147 C8.1,146.4 5.5,145.5 2,139.7 C0.1,136.6 -2.69177366e-14,134.2 -2.69177366e-14,73.5 C-2.69177366e-14,12.1 0.1,10.4 2,7.2 C3.2,5.3 5.8,3.1 8.3,2 C12.3,0.1 15.4,0 69,0 M85.9,201.4 C101.1,197.8 113.7,194.7 113.9,194.4 C114.4,194 112.2,184.6 102.3,142.8 L98.7,128 L85.6,128 C74.5,128 70.6,128.4 60.5,130.9 C53.9,132.5 48.2,133.6 47.8,133.4 C45.9,132.2 47.3,130.1 50.8,129.2 C54.1,128.3 53.7,128.2 46.3,128.1 C41.7,128 38,128.2 38,128.5 C38,129.2 56,205.1 56.5,206.8 C56.7,207.4 57.2,208 57.6,208 C58,208 70.7,205 85.9,201.4 Z M69,8 C14.6,8 12.1,8.1 9.9,9.9 L7.5,11.8 L7.5,73.3 C7.5,132.4 7.6,134.9 9.4,136.9 C11.1,138.8 12.4,139 21.7,139 C28.3,139 32.5836882,139.7 32.5836882,139 C32.5836882,138.5 31.5,134.9 30.9,132.5 C29.8,128.2 29.7,128.1 25.2,127.8 C20,127.5 17.8,125.2 19.6,122.3 C20.6,120.6 24.1,120.5 69,120.5 C113.9,120.5 117.4,120.6 118.4,122.3 C120.3,125.3 118,127.5 112.1,127.8 C109.3,128 107,128.3 107,128.5 C107,128.7 107.5,131.2 108.1,134 L109.2,139 L117.9,139 C131.8,139 130.5,145.8 130.5,73.3 C130.5,52.3 130.5,41.8 130.5,41.8 C130.5,41.8 124.366667,37.7861041 112.1,29.7583123 L98.5428645,9.9 C97.5142882,8.63333333 97,8 97,8" id="Shape"></path>
                <path d="M62,194.1 C62,192.5 64.4,191.6 79.3,188.1 C102.8,182.5 104.3,182.2 103.9,184.5 C103.6,185.9 99.6,187.2 83.5,191.1 C72.5,193.8 63.2,195.9 62.8,196 C62.3,196 62,195.1 62,194.1 Z" id="Path"></path>
                <path d="M58.2,178.3 C58.4,177 62.8,175.6 78.5,171.8 C89.5,169.2 98.8,167 99.3,167 C99.7,167 100,167.9 100,169 C100,170.1 99.8,171 99.6,171 C99.4,171 90.6,173 80.1,175.5 C58.5,180.6 57.7,180.7 58.2,178.3 Z" id="Path"></path>
                <path d="M54.4,163.9 C53.1,161.8 56.5,160.6 75.9,156.1 C90.4,152.7 95.3,151.9 96.2,152.8 C96.8,153.4 97.1,154.3 96.7,154.6 C96.3,155 87.8,157.2 77.8,159.6 C67.7,162 58.5,164.2 57.3,164.5 C56.1,164.8 54.8,164.5 54.4,163.9 Z" id="Path"></path>
                <path d="M50.6,148.1 C49.5,146.4 52.8,145.2 71.9,140.6 C85.1,137.5 91.7,136.3 92.4,137 C93,137.6 93.1,138.3 92.4,139 C91.5,139.9 55.2,149 52.5,149 C51.7,149 50.9,148.6 50.6,148.1 Z" id="Path"></path>
                <path d="M59.3,107.5 C36.7,102.4 21.1,79.8 24.8,57.4 C28,37.8 42.8,23.1 62.5,19.7 C90.2,15 116.7,40.3 113.5,68.4 C110.5,95 85,113.4 59.3,107.5 Z M79.8,99.2 C90.6,95.8 98.3,88.8 103.3,78 C104.9,74.5 105.4,71.4 105.4,64 C105.5,55.7 105.2,53.8 102.8,48.8 C99.4,41.4 91.6,33.6 84.2,30.2 C79.3,27.9 77.2,27.5 69,27.5 C60.8,27.5 58.7,27.9 53.8,30.2 C46.4,33.6 38.6,41.4 35.2,48.8 C32.8,53.8 32.5,55.7 32.6,64 C32.6,71.4 33.1,74.5 34.7,78 C39.6,88.7 47.4,95.7 57.9,99.1 C65.2,101.4 72.4,101.4 79.8,99.2 Z" id="Shape"></path>
                <path d="M72,76.3 C68.3,66.3 67.7,66 54.3,66 C43.7,66 43,65.9 43,64 C43,62.1 43.7,62 54,62 C61.1,62 65.7,61.6 67,60.8 C69.8,59 72.5,60.9 72.6,64.7 C72.7,66.4 73.9,70.8 75.4,74.5 C76.8,78.1 77.8,81.5 77.5,82.1 C76,84.4 74.2,82.5 72,76.3 Z" id="Path"></path>
            </g>
        </g>
    </g>
</svg>