<?xml version="1.0" encoding="UTF-8"?>
<svg width="1133px" height="404px" viewBox="0 0 1133 404" version="1.1" xmlns="http://www.w3.org/2000/svg" xmlns:xlink="http://www.w3.org/1999/xlink">
    <title>Group 4</title>
    <g id="Page-1" stroke="none" stroke-width="1" fill="none" fill-rule="evenodd">
        <g id="Group-4" transform="translate(0.5, 0)">
            <text id="TimeTap" font-family="YuppyTC-Regular, Yuppy TC" font-size="236" font-weight="normal" letter-spacing="30" fill="#004DA8">
                <tspan x="0.328" y="250">TimeTap</tspan>
            </text>
            <g id="Group-Copy" transform="translate(963.5, 257)">
                <path d="M32,76.959 L56.2602019,83.5854239 C56.2700054,83.5881015 56.2798141,83.5907603 56.2896277,83.5934004 C56.6188265,83.681964 56.9487556,83.7486428 57.2778696,83.7943269 L64,106.336464 L32,145 L32,76.959 Z M39.7292771,0 L48,11.7268251 L39.7292771,24.952502 L45.897,45.634 L32,41.91 L32,0 L39.7292771,0 Z" id="Combined-Shape" stroke="#004DA8" fill="#004DA8" stroke-linecap="round"></path>
                <path d="M10.507,71.102 L32,76.861 L32,145 L0,106.336464 L10.507,71.102 Z M32,0 L32.0004003,41.8215786 C31.8306679,41.776061 31.6624546,41.7309694 31.4957603,41.6863038 C27.6292979,40.6502884 23.855469,39.6492936 20.1742736,38.6833196 L24.2707229,24.952502 L16,11.7268251 L24.2707229,0 L32,0 Z" id="Combined-Shape" stroke="#004DA8" fill="#004DA8" stroke-linecap="round"></path>
                <path d="M31.5000003,77.2806447 L32.5,77.5486447 L32.5,143.5 L31.5000263,143.5 L31.5000003,77.2806447 Z M32.5,0.5 L32.5,41.6223553 L31.5000002,41.3543554 L31.5000262,0.5 L32.5,0.5 Z" id="Combined-Shape" stroke="#004DA8" fill="#004DA8"></path>
                <path d="M14.7561888,47.4227784 C22.6919225,47.4834575 28.8661587,47.527515 33.2788977,47.554951 C39.8297692,47.5956808 43.2001206,47.7604878 47.5570695,54.7697905 C50.4567374,59.434672 54.3384396,65.9242382 59.2007997,74.2374966 C46.9280938,73.9709469 35.7554353,73.8651452 25.6828247,73.9200554 C22.3754614,73.9380853 19.2683164,73.6496783 17.1320379,72.247748 C15.4915278,71.1711652 14.466775,69.4178033 14.3757016,66.653562 C14.277722,63.6797077 14.4046729,57.2690874 14.7561888,47.4227784 Z" id="Rectangle" stroke="#DC0000" fill="#DC0000" transform="translate(36.9642, 60.8381) rotate(-345) translate(-36.9642, -60.8381)"></path>
            </g>
        </g>
    </g>
</svg>