<svg version="1.1" xmlns="http://www.w3.org/2000/svg" xmlns:xlink="http://www.w3.org/1999/xlink" x="0px" y="0px"
	 viewBox="0 0 750 500" style="enable-background:new 0 0 750 500;" xml:space="preserve">
<g id="OBJECTS">
	<g>
		<path style="fill:#7FD8F7;" d="M268.573,72.245c-6.319,1.951-114.586,27.477-165.402,120.574s-10.409,168.418,20.17,187.105
			s82.964,17.947,130.511-28.612s105.119-36.786,191.812,14.3s140.614,45.048,175.566,13.284s45.943-86.446,15.718-125.531
			s-103.881-32.861-77.18-91.198C586.469,103.83,534.275,45.22,445.663,45.22S313.36,58.416,268.573,72.245z"/>
		<g>
			<g>
				<g>
					<path style="fill:#70A513;" d="M551.169,341.083l-1.535-1.282c0.116-0.14,11.749-14.281,18.892-39.874
						c6.592-23.617,10.6-62.104-7.74-111.336l1.875-0.698c18.547,49.791,14.458,88.759,7.761,112.681
						C563.151,326.542,551.288,340.941,551.169,341.083z"/>
				</g>
				<g>
					<path style="fill:#70A513;" d="M568.452,327.787l-1.779-0.914c0.318-0.618,31.654-62.381,21.353-108.896l1.953-0.433
						C600.438,264.769,568.773,327.162,568.452,327.787z"/>
				</g>
				<g>
					<path style="fill:#70A513;" d="M590.566,257.434l-1.445-1.384c16.781-17.52,21.058-38.277,21.1-38.484l1.961,0.39
						C612.14,218.169,607.746,239.497,590.566,257.434z"/>
				</g>
				<g>
					<path style="fill:#70A513;" d="M570.916,222.71c-26.516-14.46-39.558-33.721-39.687-33.914l1.664-1.11
						c0.126,0.189,12.922,19.057,38.979,33.268L570.916,222.71z"/>
				</g>
				<g>
					<path style="fill:#70A513;" d="M567.608,203.673l-1.75-0.97c8.155-14.713,6.497-33.294,6.479-33.48l1.99-0.189
						C574.403,169.818,576.061,188.423,567.608,203.673z"/>
				</g>
				<g>
					<path style="fill:#70A513;" d="M586.987,274.431l-0.396-1.96c0.302-0.062,30.339-6.464,41.901-36.199l1.863,0.725
						C618.389,267.774,587.3,274.368,586.987,274.431z"/>
				</g>
			</g>
			<g>
				<g>
					<path style="fill:#80C11A;" d="M517.85,218.382c7.82,3.39,16.323,6.772,22.813,11.922c14.104,11.192,22.934,37.6,23.152,55.076
						c0.13,10.491-1.984,20.669-4.148,30.934c-1.376,6.526-9.956,34.186-17.411,33.411l-5.666-2.917
						c-1.513-23.297-7.693-41.883-16.534-62.569c-7.556-17.677-14.358-33.794-14.439-53.7c-0.012-2.968-0.101-11.244,2.143-13.429
						C510.63,214.315,514.381,216.878,517.85,218.382z"/>
				</g>
				<g>
					<g>
						<g>
							<path style="fill:#DEF993;" d="M514.872,227.373c0.011,0.176,0.078,0.348,0.204,0.49
								c27.529,31.118,32.881,63.732,32.52,85.613c-0.388,23.705-7.358,40.23-7.429,40.395c-0.178,0.416,0.015,0.897,0.43,1.077
								c0.417,0.178,0.899-0.015,1.077-0.431c0.072-0.167,7.168-16.989,7.562-41.014c0.361-22.171-5.055-55.215-32.933-86.726
								c-0.299-0.339-0.818-0.371-1.156-0.071C514.949,226.88,514.856,227.129,514.872,227.373z"/>
						</g>
					</g>
					<g>
						<g>
							<path style="fill:#DEF993;" d="M527.716,227.963c0.003,0.047,0.014,0.094,0.034,0.14c3.364,7.59,1.13,17.036,1.106,17.13
								c-0.056,0.222,0.082,0.441,0.302,0.496c0.22,0.053,0.441-0.081,0.495-0.302c0.096-0.397,2.32-9.811-1.153-17.656
								c-0.092-0.207-0.334-0.3-0.541-0.209C527.798,227.634,527.706,227.796,527.716,227.963z"/>
						</g>
					</g>
					<g>
						<g>
							<path style="fill:#DEF993;" d="M539.785,267.005c0.008,0.112,0.06,0.22,0.155,0.295c0.178,0.141,0.435,0.11,0.575-0.068
								c0.081-0.101,8.034-10.333,7.206-25.185l0-0.003c-0.015-0.225-0.207-0.395-0.431-0.383c-0.226,0.012-0.399,0.207-0.387,0.432
								c0.811,14.545-6.952,24.532-7.03,24.631C539.807,266.807,539.779,266.908,539.785,267.005z"/>
						</g>
					</g>
					<g>
						<g>
							<path style="fill:#DEF993;" d="M546.112,289.601c0.005,0.075,0.03,0.149,0.077,0.214c0.132,0.183,0.388,0.225,0.573,0.091
								c0.461-0.333,11.312-8.292,12.811-19.116c0.03-0.22-0.125-0.432-0.35-0.462c-0.224-0.031-0.431,0.125-0.462,0.35
								c-1.45,10.48-12.369,18.485-12.479,18.565C546.163,289.328,546.103,289.465,546.112,289.601z"/>
						</g>
					</g>
					<g>
						<g>
							<path style="fill:#DEF993;" d="M548.106,308.551c0.004,0.063,0.023,0.126,0.057,0.184c0.117,0.194,0.369,0.257,0.563,0.141
								c0.379-0.229,9.335-5.677,12.959-13.328c0.095-0.203,0.009-0.449-0.195-0.545c-0.205-0.098-0.449-0.011-0.546,0.195
								c-3.515,7.423-12.549,12.921-12.64,12.975C548.167,308.256,548.096,308.403,548.106,308.551z"/>
						</g>
					</g>
					<g>
						<g>
							<path style="fill:#DEF993;" d="M547.349,324.574c0.002,0.045,0.013,0.089,0.031,0.133c0.088,0.209,0.328,0.307,0.537,0.219
								c0.314-0.133,7.737-3.286,9.48-6.778c0.103-0.201,0.019-0.448-0.184-0.55c-0.202-0.1-0.449-0.018-0.549,0.184
								c-1.609,3.221-8.991,6.357-9.066,6.388C547.434,324.24,547.337,324.406,547.349,324.574z"/>
						</g>
					</g>
					<g>
						<g>
							<path style="fill:#DEF993;" d="M545.38,337.402c0.003,0.043,0.012,0.086,0.029,0.128c0.086,0.21,0.325,0.31,0.534,0.225
								c0.208-0.085,5.109-2.102,6.914-4.61c0.133-0.184,0.09-0.441-0.093-0.572c-0.183-0.132-0.44-0.09-0.572,0.093
								c-1.669,2.319-6.51,4.31-6.558,4.33C545.466,337.065,545.368,337.231,545.38,337.402z"/>
						</g>
					</g>
					<g>
						<g>
							<path style="fill:#DEF993;" d="M536.409,331.077c0.003,0.041,0.012,0.083,0.028,0.125c2.383,5.98,8.337,9.066,8.59,9.194
								c0.201,0.103,0.448,0.023,0.551-0.178c0.103-0.201,0.023-0.448-0.179-0.551c-0.059-0.031-5.934-3.081-8.2-8.768
								c-0.084-0.21-0.322-0.313-0.532-0.229C536.496,330.738,536.398,330.904,536.409,331.077z"/>
						</g>
					</g>
					<g>
						<g>
							<path style="fill:#DEF993;" d="M533.33,314.439c0.004,0.062,0.023,0.125,0.057,0.184c5.634,9.403,13.795,11.481,14.14,11.565
								c0.22,0.053,0.441-0.081,0.495-0.301c0.055-0.219-0.081-0.441-0.301-0.495c-0.081-0.021-8.182-2.095-13.632-11.19
								c-0.116-0.195-0.368-0.258-0.561-0.141C533.392,314.143,533.321,314.29,533.33,314.439z"/>
						</g>
					</g>
					<g>
						<g>
							<path style="fill:#DEF993;" d="M528.028,295.583c0.003,0.055,0.018,0.111,0.045,0.163
								c5.761,11.05,20.331,15.479,20.478,15.523c0.217,0.064,0.444-0.059,0.509-0.277c0.066-0.216-0.059-0.445-0.276-0.509
								c-0.143-0.042-14.385-4.379-19.984-15.116c-0.105-0.201-0.352-0.278-0.553-0.173
								C528.098,295.27,528.017,295.426,528.028,295.583z"/>
						</g>
					</g>
					<g>
						<g>
							<path style="fill:#DEF993;" d="M519.021,273.888c0.003,0.049,0.015,0.099,0.037,0.145
								c6.107,13.192,26.827,17.68,27.706,17.865c0.221,0.046,0.438-0.095,0.485-0.317c0.048-0.223-0.096-0.438-0.316-0.485
								c-0.211-0.045-21.198-4.59-27.13-17.408c-0.095-0.204-0.339-0.294-0.545-0.2
								C519.099,273.563,519.011,273.723,519.021,273.888z"/>
						</g>
					</g>
					<g>
						<g>
							<path style="fill:#DEF993;" d="M512.044,253.395c0.004,0.054,0.018,0.107,0.044,0.158
								c7.329,14.559,28.67,15.945,28.885,15.957c0.225,0.014,0.419-0.159,0.432-0.386c0.021-0.219-0.159-0.418-0.385-0.432
								c-0.209-0.013-21.084-1.375-28.2-15.508c-0.101-0.202-0.348-0.285-0.55-0.182
								C512.117,253.079,512.034,253.236,512.044,253.395z"/>
						</g>
					</g>
					<g>
						<g>
							<path style="fill:#DEF993;" d="M509.087,237.905c0.003,0.045,0.013,0.09,0.032,0.133
								c4.424,10.458,20.914,10.096,21.613,10.076c0.225-0.006,0.404-0.195,0.397-0.422c-0.019-0.22-0.196-0.403-0.422-0.397
								c-0.166,0.005-16.629,0.364-20.835-9.575c-0.087-0.209-0.328-0.306-0.536-0.218
								C509.171,237.571,509.076,237.736,509.087,237.905z"/>
						</g>
					</g>
				</g>
			</g>
			<g>
				<g>
					<path style="fill:#70A513;" d="M641.667,285.862c-7.402-2.047-15.278-4.485-22.742-4.544
						c-16.222-0.13-37.353,13.394-47.392,25.527c-6.025,7.284-10.301,15.617-14.591,24.04c-2.727,5.355-12.357,29.606-6.69,33.28
						l5.624,1.159c14.24-15.482,29.088-25.019,46.99-34.525c15.299-8.122,29.186-15.577,40.503-29.49
						c1.688-2.074,6.432-7.828,6.094-10.629C649.03,287.094,644.95,286.77,641.667,285.862z"/>
				</g>
				<g>
					<g>
						<g>
							<path style="fill:#C9EF75;" d="M638.669,293.852c-0.107,0.117-0.252,0.2-0.42,0.228
								c-36.908,6.249-59.111,26.093-71.237,41.642c-13.137,16.843-17.598,32.375-17.641,32.53c-0.11,0.392-0.518,0.621-0.91,0.512
								c-0.393-0.111-0.622-0.519-0.511-0.912c0.044-0.158,4.584-15.969,17.898-33.04c12.289-15.752,34.78-35.861,72.155-42.189
								c0.402-0.069,0.783,0.203,0.851,0.604C638.894,293.463,638.818,293.69,638.669,293.852z"/>
						</g>
					</g>
					<g>
						<g>
							<path style="fill:#C9EF75;" d="M629.328,287c-0.029,0.031-0.063,0.058-0.103,0.079c-6.653,3.42-10.429,11.307-10.466,11.387
								c-0.086,0.187-0.307,0.263-0.492,0.177c-0.184-0.087-0.263-0.307-0.177-0.492c0.157-0.333,3.924-8.193,10.796-11.73
								c0.182-0.093,0.404-0.022,0.498,0.159C629.457,286.723,629.43,286.889,629.328,287z"/>
						</g>
					</g>
					<g>
						<g>
							<path style="fill:#C9EF75;" d="M598.779,307.552c-0.069,0.074-0.167,0.12-0.276,0.12c-0.204-0.002-0.368-0.169-0.365-0.373
								c0-0.117,0.211-11.791,9.193-21.738l0.002-0.002c0.138-0.15,0.369-0.16,0.519-0.025c0.152,0.137,0.163,0.371,0.027,0.522
								c-8.797,9.741-9.003,21.136-9.003,21.25C598.875,307.4,598.838,307.487,598.779,307.552z"/>
						</g>
					</g>
					<g>
						<g>
							<path style="fill:#C9EF75;" d="M581.559,319.819c-0.046,0.049-0.105,0.088-0.175,0.106c-0.196,0.054-0.399-0.062-0.453-0.26
								c-0.135-0.494-3.242-12.214,1.83-20.652c0.103-0.171,0.332-0.232,0.507-0.126c0.174,0.105,0.232,0.331,0.126,0.507
								c-4.911,8.17-1.783,19.96-1.751,20.079C581.678,319.599,581.642,319.728,581.559,319.819z"/>
						</g>
					</g>
					<g>
						<g>
							<path style="fill:#C9EF75;" d="M569.441,331.98c-0.038,0.042-0.087,0.076-0.144,0.097c-0.192,0.07-0.404-0.028-0.474-0.22
								c-0.136-0.375-3.335-9.262-1.548-16.677c0.048-0.196,0.247-0.32,0.445-0.272c0.199,0.048,0.321,0.247,0.273,0.446
								c-1.734,7.194,1.491,16.16,1.524,16.25C569.565,331.738,569.531,331.882,569.441,331.98z"/>
						</g>
					</g>
					<g>
						<g>
							<path style="fill:#C9EF75;" d="M560.908,343.644c-0.027,0.03-0.059,0.056-0.097,0.076c-0.18,0.097-0.404,0.029-0.501-0.15
								c-0.145-0.271-3.567-6.681-2.814-10.116c0.042-0.199,0.24-0.325,0.44-0.282c0.199,0.044,0.325,0.241,0.281,0.439
								c-0.694,3.169,2.709,9.544,2.744,9.608C561.037,343.362,561.011,343.533,560.908,343.644z"/>
						</g>
					</g>
					<g>
						<g>
							<path style="fill:#C9EF75;" d="M555.032,353.754c-0.026,0.029-0.057,0.054-0.093,0.074c-0.179,0.099-0.403,0.034-0.502-0.144
								c-0.098-0.177-2.393-4.364-2.241-7.144c0.01-0.204,0.186-0.36,0.389-0.349c0.203,0.011,0.359,0.186,0.348,0.389
								c-0.141,2.57,2.127,6.705,2.149,6.746C555.162,353.469,555.136,353.641,555.032,353.754z"/>
						</g>
					</g>
					<g>
						<g>
							<path style="fill:#C9EF75;" d="M564.901,354.394c-0.025,0.027-0.055,0.052-0.091,0.072
								c-5.054,2.845-10.975,1.641-11.224,1.588c-0.2-0.041-0.327-0.237-0.285-0.437c0.042-0.199,0.238-0.327,0.437-0.285
								c0.059,0.012,5.904,1.196,10.711-1.51c0.178-0.099,0.403-0.037,0.503,0.141C565.031,354.106,565.006,354.279,564.901,354.394
								z"/>
						</g>
					</g>
					<g>
						<g>
							<path style="fill:#C9EF75;" d="M576.472,344.468c-0.038,0.041-0.087,0.075-0.144,0.097
								c-9.27,3.407-16.169,0.248-16.458,0.111c-0.185-0.087-0.263-0.307-0.177-0.491c0.086-0.185,0.306-0.264,0.491-0.177
								c0.068,0.031,6.923,3.159,15.89-0.136c0.191-0.071,0.404,0.027,0.474,0.219C576.596,344.225,576.563,344.369,576.472,344.468
								z"/>
						</g>
					</g>
					<g>
						<g>
							<path style="fill:#C9EF75;" d="M590.857,334.244c-0.033,0.037-0.075,0.068-0.124,0.089
								c-10.291,4.49-23.014-0.646-23.142-0.698c-0.188-0.078-0.278-0.293-0.201-0.482c0.076-0.189,0.293-0.279,0.482-0.201
								c0.124,0.051,12.565,5.067,22.565,0.704c0.187-0.081,0.404,0.004,0.486,0.191
								C590.984,333.985,590.953,334.139,590.857,334.244z"/>
						</g>
					</g>
					<g>
						<g>
							<path style="fill:#C9EF75;" d="M609.446,324.125c-0.03,0.033-0.066,0.06-0.108,0.081
								c-11.745,5.796-28.815-2.777-29.536-3.145c-0.181-0.093-0.254-0.314-0.161-0.496c0.093-0.184,0.315-0.253,0.497-0.161
								c0.173,0.088,17.462,8.773,28.873,3.139c0.183-0.089,0.404-0.014,0.495,0.168
								C609.575,323.852,609.546,324.015,609.446,324.125z"/>
						</g>
					</g>
					<g>
						<g>
							<path style="fill:#C9EF75;" d="M625.932,313.701c-0.033,0.036-0.073,0.065-0.12,0.086
								c-13.375,6.064-29.126-5.036-29.283-5.15c-0.166-0.118-0.204-0.349-0.085-0.515c0.109-0.165,0.348-0.204,0.515-0.085
								c0.154,0.11,15.564,10.963,28.549,5.077c0.185-0.084,0.405-0.003,0.489,0.183
								C626.059,313.437,626.029,313.595,625.932,313.701z"/>
						</g>
					</g>
					<g>
						<g>
							<path style="fill:#C9EF75;" d="M636.768,304.511c-0.028,0.03-0.06,0.056-0.098,0.075c-9.018,4.831-20.378-4.75-20.857-5.16
								c-0.155-0.132-0.173-0.366-0.04-0.521c0.138-0.143,0.365-0.172,0.521-0.04c0.113,0.097,11.455,9.662,20.028,5.071
								c0.179-0.097,0.403-0.029,0.499,0.151C636.897,304.228,636.871,304.398,636.768,304.511z"/>
						</g>
					</g>
				</g>
			</g>
			<g>
				<g>
					<path style="fill:#80C11A;" d="M660.199,356.992c-5.249-5.606-10.698-11.793-17.037-15.736
						c-13.775-8.569-38.858-8.047-53.75-2.928c-8.939,3.074-16.933,7.955-24.985,12.906c-5.119,3.148-25.981,18.82-23.061,24.91
						l4.194,3.921c20.223-5.786,37.866-6.183,58.098-4.959c17.289,1.046,33.026,1.926,49.938-4.046
						c2.522-0.89,9.57-3.326,10.742-5.893C665.839,361.882,662.527,359.478,660.199,356.992z"/>
				</g>
				<g>
					<g>
						<g>
							<path style="fill:#C9EF75;" d="M653.475,362.246c-0.153,0.044-0.319,0.039-0.478-0.024
								c-34.753-13.912-64.045-8.556-82.499-1.609c-19.992,7.523-31.897,18.45-32.015,18.56c-0.299,0.277-0.766,0.26-1.044-0.038
								c-0.278-0.299-0.26-0.767,0.039-1.044c0.12-0.111,12.238-11.236,32.5-18.861c18.699-7.034,48.376-12.466,83.568,1.622
								c0.379,0.151,0.563,0.581,0.411,0.959C653.87,362.031,653.686,362.186,653.475,362.246z"/>
						</g>
					</g>
					<g>
						<g>
							<path style="fill:#C9EF75;" d="M649.077,351.528c-0.041,0.012-0.084,0.017-0.129,0.014c-7.46-0.551-14.795,4.211-14.868,4.26
								c-0.171,0.115-0.399,0.065-0.512-0.105c-0.112-0.17-0.065-0.399,0.106-0.512c0.308-0.202,7.62-4.945,15.328-4.38
								c0.204,0.015,0.356,0.192,0.342,0.395C649.331,351.36,649.222,351.487,649.077,351.528z"/>
						</g>
					</g>
					<g>
						<g>
							<path style="fill:#C9EF75;" d="M612.293,353.137c-0.098,0.028-0.205,0.016-0.298-0.042c-0.173-0.108-0.226-0.336-0.117-0.509
								c0.061-0.099,6.328-9.951,19.179-13.756l0.002-0.001c0.196-0.056,0.398,0.056,0.456,0.25
								c0.058,0.196-0.054,0.401-0.249,0.459c-12.586,3.726-18.703,13.342-18.763,13.439
								C612.454,353.058,612.377,353.113,612.293,353.137z"/>
						</g>
					</g>
					<g>
						<g>
							<path style="fill:#C9EF75;" d="M591.203,354.627c-0.065,0.018-0.135,0.02-0.205-0.001c-0.195-0.056-0.308-0.261-0.251-0.458
								c0.142-0.492,3.602-12.113,12.33-16.669c0.177-0.092,0.404-0.025,0.498,0.157c0.094,0.181,0.025,0.404-0.157,0.498
								c-8.451,4.411-11.929,16.103-11.963,16.22C591.419,354.501,591.321,354.593,591.203,354.627z"/>
						</g>
					</g>
					<g>
						<g>
							<path style="fill:#C9EF75;" d="M574.521,358.686c-0.055,0.016-0.114,0.019-0.174,0.007c-0.2-0.04-0.33-0.235-0.29-0.435
								c0.079-0.391,1.983-9.642,7.375-15.038c0.144-0.142,0.378-0.144,0.522,0c0.145,0.145,0.145,0.378,0,0.522
								c-5.231,5.235-7.154,14.567-7.172,14.66C574.754,358.544,574.65,358.649,574.521,358.686z"/>
						</g>
					</g>
					<g>
						<g>
							<path style="fill:#C9EF75;" d="M561.158,364.19c-0.039,0.012-0.08,0.016-0.122,0.014c-0.204-0.011-0.36-0.185-0.349-0.389
								c0.017-0.307,0.44-7.561,2.873-10.099c0.14-0.148,0.374-0.152,0.522-0.011c0.146,0.141,0.151,0.375,0.011,0.522
								c-2.244,2.342-2.665,9.556-2.668,9.63C561.416,364.016,561.305,364.149,561.158,364.19z"/>
						</g>
					</g>
					<g>
						<g>
							<path style="fill:#C9EF75;" d="M550.873,369.753c-0.037,0.011-0.077,0.016-0.118,0.014c-0.204-0.009-0.362-0.182-0.353-0.385
								c0.009-0.202,0.233-4.972,1.813-7.265c0.115-0.169,0.346-0.21,0.514-0.095c0.168,0.116,0.21,0.346,0.094,0.513
								c-1.461,2.12-1.681,6.83-1.683,6.877C551.133,369.578,551.021,369.711,550.873,369.753z"/>
						</g>
					</g>
					<g>
						<g>
							<path style="fill:#C9EF75;" d="M558.961,375.444c-0.036,0.01-0.074,0.015-0.115,0.014
								c-5.796-0.207-10.221-4.322-10.406-4.497c-0.149-0.139-0.156-0.373-0.016-0.521c0.14-0.149,0.373-0.155,0.522-0.015
								c0.044,0.041,4.415,4.099,9.927,4.296c0.203,0.008,0.363,0.178,0.356,0.382C559.222,375.267,559.111,375.401,558.961,375.444
								z"/>
						</g>
					</g>
					<g>
						<g>
							<path style="fill:#C9EF75;" d="M574.01,373.007c-0.054,0.015-0.113,0.019-0.174,0.007
								c-9.687-1.926-13.927-8.219-14.102-8.486c-0.112-0.171-0.065-0.399,0.105-0.511c0.169-0.113,0.399-0.065,0.512,0.105
								c0.042,0.062,4.261,6.305,13.63,8.169c0.2,0.039,0.33,0.234,0.29,0.433C574.243,372.865,574.139,372.97,574.01,373.007z"/>
						</g>
					</g>
					<g>
						<g>
							<path style="fill:#C9EF75;" d="M591.616,371.784c-0.048,0.014-0.099,0.018-0.152,0.011
								c-11.122-1.534-19.302-12.551-19.383-12.662c-0.12-0.164-0.085-0.395,0.08-0.516c0.163-0.121,0.395-0.085,0.516,0.08
								c0.079,0.108,8.08,10.875,18.888,12.366c0.202,0.028,0.342,0.214,0.315,0.417
								C591.86,371.629,591.753,371.745,591.616,371.784z"/>
						</g>
					</g>
					<g>
						<g>
							<path style="fill:#C9EF75;" d="M612.754,372.841c-0.042,0.012-0.088,0.017-0.135,0.013
								c-13.045-1.178-23.14-17.394-23.563-18.084c-0.107-0.174-0.053-0.4,0.121-0.508c0.175-0.109,0.401-0.052,0.508,0.121
								c0.102,0.166,10.326,16.59,23.001,17.734c0.202,0.019,0.353,0.199,0.335,0.402
								C613.007,372.676,612.897,372.8,612.754,372.841z"/>
						</g>
					</g>
					<g>
						<g>
							<path style="fill:#C9EF75;" d="M632.257,372.542c-0.047,0.013-0.096,0.017-0.147,0.011
								c-14.575-1.8-22.227-19.484-22.303-19.663c-0.08-0.187,0.008-0.404,0.196-0.483c0.179-0.084,0.403,0.008,0.483,0.196
								c0.074,0.174,7.565,17.47,21.713,19.218c0.202,0.025,0.347,0.209,0.321,0.411
								C632.503,372.384,632.395,372.502,632.257,372.542z"/>
						</g>
					</g>
					<g>
						<g>
							<path style="fill:#C9EF75;" d="M646.295,370.35c-0.039,0.011-0.081,0.016-0.123,0.013
								c-10.214-0.58-14.911-14.678-15.106-15.278c-0.063-0.193,0.043-0.402,0.238-0.465c0.192-0.05,0.402,0.044,0.465,0.237
								c0.046,0.142,4.737,14.218,14.446,14.77c0.204,0.011,0.359,0.186,0.347,0.389
								C646.553,370.177,646.442,370.308,646.295,370.35z"/>
						</g>
					</g>
				</g>
			</g>
			<g>
				<path style="fill:#D7EEF4;" d="M659.177,433.432c0,11.79-192.693,21.348-326.416,21.348s-242.126-9.558-242.126-21.348
					c0-11.79,108.404-21.348,242.126-21.348S659.177,421.642,659.177,433.432z"/>
				<g>
					<g>
						<g>
							<path style="fill:#515151;" d="M240.341,431.853c-2.616,0-5.506-1.567-6.186-5.118l-17.134-118.147l2.969-0.43l17.123,118.08
								c0.377,1.959,1.997,2.628,3.309,2.614c1.289-0.029,2.899-0.788,3.194-2.83l12.899-117.813l2.982,0.326L246.591,426.4
								c-0.534,3.697-3.448,5.391-6.102,5.451C240.44,431.853,240.391,431.853,240.341,431.853z"/>
						</g>
						<g>
							<path style="fill:#515151;" d="M324.666,431.853c-2.616,0-5.506-1.567-6.186-5.118l-17.134-118.147l2.969-0.43l17.123,118.08
								c0.376,1.959,2.016,2.617,3.309,2.614c1.289-0.029,2.898-0.788,3.194-2.83l12.899-117.813l2.982,0.326L330.916,426.4
								c-0.534,3.697-3.448,5.391-6.101,5.451C324.765,431.853,324.716,431.853,324.666,431.853z"/>
						</g>
					</g>
					<rect x="196.906" y="286.589" style="fill:#F9BA1C;" width="167.032" height="25.865"/>
					<rect x="196.906" y="286.589" style="fill:#FFE340;" width="167.032" height="5.879"/>
				</g>
				<g>
					<path style="fill:#EDEDED;" d="M294.064,411.831c0,0-1.839,5.585-8.15,6.968c-6.311,1.383-24.288,4.694-30.217,7.532
						c-5.929,2.837-7.176,8.655,1.69,10.082c8.866,1.427,42.959,1.104,45.861,0.178c2.902-0.927,4.021-15.462,6.388-17.581
						C312.002,416.89,294.064,411.831,294.064,411.831z"/>
					<path style="fill:#B2B2B2;" d="M304.95,433.094c-2.902,0.927-38.882,0.836-47.748-0.592c-3.396-0.547-5.027-1.677-5.419-3.023
						c-1.853,2.776-0.611,5.933,5.604,6.934c8.866,1.427,42.959,1.104,45.861,0.178c1.158-0.37,1.673-1.867,2.027-3.661
						C305.169,432.989,305.068,433.056,304.95,433.094z"/>
				</g>
				<g>
					<path style="fill:#EFCA14;" d="M463.896,169.128c0,0-31.617,51.5-38.241,58.5s15.375,10.349,15.375,10.349
						s25.161-25.846,28.263-32.109C472.396,199.605,463.896,169.128,463.896,169.128z"/>
					<g>
						<g>
							<path style="fill:#3A128E;" d="M500.282,246.753c0,0-3.947,42.288-79.994,50.374c-36.248,6.187-38.383,6.354-43.591,16.8
								c-26.235,52.621-64.217,110.681-64.217,110.681s-20.089-12.297-22.533-12.777c12.245-19.296,51.011-126.785,96.818-149.828
								s90.552-31.951,90.552-31.951L500.282,246.753z"/>
						</g>
						<g>
							<circle style="fill:#1A89C6;" cx="482.391" cy="360.169" r="79.325"/>
							<circle style="fill:#FFFFFF;" cx="482.391" cy="360.169" r="67.701"/>
							<circle style="fill:#EDEDED;" cx="482.391" cy="360.169" r="34.003"/>
							<g>
								<g>
									<g>
										
											<rect x="447.195" y="405.59" transform="matrix(0.5 -0.866 0.866 0.5 -124.9424 598.0759)" style="fill:#35B5D8;" width="16.565" height="3.303"/>
										
											<rect x="501.07" y="312.275" transform="matrix(0.5 -0.866 0.866 0.5 -17.1923 598.0759)" style="fill:#35B5D8;" width="16.565" height="3.303"/>
									</g>
									<g>
										<rect x="480.764" y="406.177" style="fill:#35B5D8;" width="3.303" height="16.565"/>
										<rect x="480.764" y="298.426" style="fill:#35B5D8;" width="3.303" height="16.565"/>
									</g>
									<g>
										
											<rect x="507.701" y="398.959" transform="matrix(0.866 -0.5 0.5 0.866 -135.3803 309.2364)" style="fill:#35B5D8;" width="3.303" height="16.565"/>
										
											<rect x="453.826" y="305.644" transform="matrix(0.866 -0.5 0.5 0.866 -95.941 269.7971)" style="fill:#35B5D8;" width="3.303" height="16.565"/>
									</g>
									<g>
										
											<rect x="527.421" y="379.239" transform="matrix(0.5 -0.866 0.866 0.5 -71.0673 651.951)" style="fill:#35B5D8;" width="3.303" height="16.565"/>
										
											<rect x="434.106" y="325.364" transform="matrix(0.5 -0.866 0.866 0.5 -71.0673 544.2009)" style="fill:#35B5D8;" width="3.303" height="16.565"/>
									</g>
									<g>
										<rect x="528.008" y="358.932" style="fill:#35B5D8;" width="16.565" height="3.303"/>
										<rect x="420.258" y="358.932" style="fill:#35B5D8;" width="16.565" height="3.303"/>
									</g>
									<g>
										
											<rect x="520.79" y="331.995" transform="matrix(0.866 -0.5 0.5 0.866 -95.941 309.2364)" style="fill:#35B5D8;" width="16.565" height="3.303"/>
										
											<rect x="427.476" y="385.87" transform="matrix(0.866 -0.5 0.5 0.866 -135.3803 269.7971)" style="fill:#35B5D8;" width="16.565" height="3.303"/>
									</g>
								</g>
							</g>
							<g>
								<g>
									<path style="fill:#1A89C6;" d="M482.369,360.434l-25.421-38.737l0.49-0.322c0,0,4.395,6.896,10.061,9.371
										c5.666,2.476,8.904,6.219,7.79,9.884s2.06,9.297,3.654,10.533c1.593,1.236,4.558,5.158,4.62,7.835
										C483.624,361.675,482.369,360.434,482.369,360.434z"/>
									<path style="fill:#1A89C6;" d="M482.544,360.319l-25.421-38.737l-0.49,0.322c0,0,4.577,6.776,4.594,12.959
										c0.017,6.183,2.162,10.643,5.968,11.08s7.709,5.59,8.209,7.544c0.5,1.954,2.918,6.235,5.349,7.356
										C483.183,361.965,482.544,360.319,482.544,360.319z"/>
								</g>
								<g>
									<path style="fill:#1A89C6;" d="M481.111,360.153l61.883,10.905l-0.102,0.578c0,0-10.902-2.032-18.404,0.077
										c-7.503,2.108-14.168,1.598-16.934-1.877c-2.766-3.475-11.305-5.423-13.967-5.228c-2.662,0.195-9.271-0.638-12.058-2.567
										C478.742,360.11,481.111,360.153,481.111,360.153z"/>
									<path style="fill:#1A89C6;" d="M481.074,360.36l61.883,10.905l0.102-0.578c0,0-10.94-1.817-17.27-6.363
										c-6.33-4.546-12.769-6.344-16.556-4.024c-3.787,2.321-12.478,1.232-14.912,0.139s-8.93-2.57-12.21-1.709
										C478.833,359.59,481.074,360.36,481.074,360.36z"/>
								</g>
								<circle style="fill:#145AAD;" cx="482.391" cy="360.169" r="5.548"/>
							</g>
						</g>
						<g>
							<path style="fill:#EDEDED;" d="M381.697,355.125c0,0,2.231,5.44-1.667,10.593s-15.409,19.351-18.072,25.361
								c-2.663,6.01,0.171,11.242,7.837,6.564c7.666-4.677,33.369-27.078,34.972-29.668c1.603-2.59-6.992-14.365-6.57-17.514
								C398.619,347.313,381.697,355.125,381.697,355.125z"/>
							<path style="fill:#B2B2B2;" d="M403.788,364.211c-1.603,2.59-29.009,25.903-36.675,30.58
								c-2.936,1.791-4.91,1.992-6.083,1.224c0.396,3.314,3.391,4.907,8.765,1.628c7.666-4.677,33.369-27.078,34.972-29.668
								c0.64-1.034,0.058-2.506-0.839-4.1C403.887,363.989,403.853,364.106,403.788,364.211z"/>
						</g>
						<path style="fill:#4218A8;" d="M504.921,248.5c0,0,11.044,35.469-33.943,39.196s-90.492-13.678-95.394-12.985
							c-4.902,0.693,25.736,70.828,25.166,78.143c-9.805,6.43-20.72,12.863-20.72,12.863s-49.835-92.958-38.5-111.589
							c11.335-18.632,67.762-23.733,87.095-17.15s59.226-6.07,59.226-6.07L504.921,248.5z"/>
						<path style="fill:#FFC9A4;" d="M534.716,144.074"/>
						<path style="fill:#F9BA1C;" d="M478.898,148.364c0,0,37.431,10.65,40.132,70.263c1.597,35.258-16.023,52.5-16.023,52.5
							s-13.732-23.317-37.747-34.673C456.616,200.962,451.589,153.398,478.898,148.364z"/>
						<path style="fill:#E8BB8B;" d="M401.53,222.378c0,0-20.563-5.053-29.532,15.599c15.74-2.472,23.282-2.911,24.407-2.786
							S401.53,222.378,401.53,222.378z"/>
						<path style="fill:#FFE340;" d="M501.459,178.374c0,0-2.527-18.09-14.906-17.226c-12.378,0.864-14.319,55.167-19.559,61.518
							c-5.24,6.352-53.798-1.206-67.631-3.872c-3.621,9.455-4.137,16.454-4.249,17.5c-0.113,1.046,48.222,14.173,70.011,14.322
							S505.592,214.048,501.459,178.374z"/>
					</g>
					<g>
						<path style="fill:#E2AA79;" d="M479.791,137.211c0,0,0.572,10,2.739,14.917c-4.5,5.333-10.975,7.172-15.488,5.086
							C468.863,151.378,479.791,137.211,479.791,137.211z"/>
						<g>
							<path style="fill:#BC4C00;" d="M447.122,119.618l0.405-0.031c0,0,0.089,7.54,1.967,11.873
								c2.342-4.493,2.843-12.833,2.843-12.833L447.122,119.618z"/>
							<path style="fill:#E8BB8B;" d="M449.659,123.358c0,0-0.744,12.97,0.798,17.519s5.82,15.073,14.101,16.935
								c8.281,1.862,13.414-9.057,14.212-12.808s1.656-10.978,0.338-16.846c-1.317-5.868-11.438-16.162-19.164-15.028
								C452.218,114.264,449.659,123.358,449.659,123.358z"/>
							<path style="fill:#E8BB8B;" d="M449.659,123.358c0,0-0.744,12.97,0.798,17.519s5.82,15.073,14.101,16.935
								c8.281,1.862,13.414-9.057,14.212-12.808s1.656-10.978,0.338-16.846c-1.317-5.868-11.438-16.162-19.164-15.028
								C452.218,114.264,449.659,123.358,449.659,123.358z"/>
							<path style="fill:#FCCB9D;" d="M479.109,128.158c-1.317-5.868-11.438-16.162-19.164-15.028
								c-3.991,0.586-6.601,3.295-8.194,5.778c0.784-0.24,1.662-0.443,2.655-0.589c7.726-1.134,16.842,5.901,18.159,11.769
								c1.317,5.868,2.99,11.762,2.191,15.513c-0.621,2.917-3.864,10.167-9.171,12.372c7.676,0.786,12.42-9.376,13.184-12.969
								C479.568,141.253,480.426,134.025,479.109,128.158z"/>
							<path style="fill:#FCCB9D;" d="M478.79,131.062c0,0,2.317-5.169,4.126-4.222c1.809,0.947,1.985,5.382,0.918,8.448
								s-4.687,5.405-5.275,2.683C477.971,135.248,478.79,131.062,478.79,131.062z"/>
							<path style="fill:#BC4C00;" d="M453.699,120.123c0,0,3.878,4.586,13.382-0.265c2.531-0.953,6.093-0.141,7.044,3.774
								c0.951,3.915,1.641,4.432,2.587,5.092c0.946,0.66,1.031,6.025,1.031,6.025s0.924-6.026,4.758-8.022
								c1.819-5.992,3.698-19.728-4.013-20.521c-5.17-4.813-11.023-8.199-19.355-4.053c-6.098,3.035-13.963,7.905-19.471,7.187
								c-5.091-0.587-2.226,11.321,5.105,12.469C452.099,122.958,453.699,120.123,453.699,120.123z"/>
							<path style="fill:#F2721C;" d="M483.563,122.132c1.123-6.584,1.022-15.298-5.074-15.925
								c-3.68-3.426-7.707-6.126-12.727-5.904c-2.04,0.417-4.534,1.383-6.951,3.505c-5.515,4.841-11.559,5.575-14.193,6.624
								s0.103,9.01,10.2,4.062c0.956,1.991,6.158,2.213,9.25-0.714c-0.155,5.022,4.893,1.646,7.281-0.596
								c2.221,2.705,4.98,1.347,5.825,1.531c0.844,0.184,1.877,0.851,2.166,4.828c0.905-0.709,0.958-5.311,0.815-6.275
								c1.629,3.778,2.013,6.417,0.982,11.012c0.977-1.704,1.664-6.256,0.947-10.078
								C483.026,116.038,484.049,118.623,483.563,122.132z"/>
							<path style="fill:#BC4C00;" d="M473.156,128.912c0,0-5.012-2.075-7.794,0.187c-0.979,0.954-0.423,1.938,0.446,1.344
								c0.869-0.594,3.327-1.534,6.582-0.979C473.531,129.595,474.348,129.309,473.156,128.912z"/>
							<path style="fill:#BC4C00;" d="M450.591,131.367c0,0,3.623-3.359,6.564-1.949c1.117,0.736,0.883,1.744-0.006,1.411
								c-0.888-0.333-3.199-0.563-5.768,0.858C450.464,132.124,449.703,132.073,450.591,131.367z"/>
						</g>
					</g>
				</g>
				<g>
					<g>
						<path style="fill:#515151;" d="M317.025,267.628h-89.49c-1.384,0-2.505-1.122-2.505-2.505v-56.75
							c0-1.384,1.122-2.505,2.505-2.505h89.49c1.384,0,2.505,1.122,2.505,2.505v56.75
							C319.53,266.506,318.409,267.628,317.025,267.628z"/>
						<rect x="227.53" y="210.753" style="fill:#FFFFFF;" width="89.75" height="51.25"/>
					</g>
					<rect x="264.447" y="267.545" style="fill:#1D1D1B;" width="13" height="14.333"/>
					<rect x="248.863" y="281.878" style="fill:#515151;" width="44.167" height="4.628"/>
				</g>
				<g>
					<g>
						<g>
							
								<rect x="152.353" y="359.473" transform="matrix(-1 -4.476653e-11 4.476653e-11 -1 313.4817 785.8652)" style="fill:#1D1D1B;" width="8.777" height="66.919"/>
							
								<rect x="146.548" y="352.276" transform="matrix(-1 -4.488155e-11 4.488155e-11 -1 313.4817 715.8048)" style="fill:#515151;" width="20.386" height="11.252"/>
						</g>
						<path style="fill:#515151;" d="M118.803,431.853c1.334-6.1,17.804-10.922,37.938-10.922s36.604,4.822,37.938,10.922H118.803z"
							/>
					</g>
					<path style="fill:#F67D52;" d="M213.585,333.23c-15.478-7.3-33.429-3.999-64.027-8.231
						c-30.597-4.232-36.371-63.001-37.862-74.038c-2.333-17.273-12.695-22.735-21.972-14.598s12.687,80.104,20.424,100.122
						c7.737,20.019,42.706,22.355,74.047,20.21c31.341-2.145,38.991-1.656,40.455-5.237
						C226.117,347.878,222.73,337.543,213.585,333.23z"/>
					<path style="fill:#F2721C;" d="M213.585,333.23c-15.478-7.3-33.429-3.999-64.027-8.231
						c-30.597-4.232-36.371-63.001-37.862-74.038c-2.333-17.273-12.695-22.735-21.972-14.598s12.687,80.104,20.424,100.122
						c7.737,20.019,42.706,22.355,74.047,20.21c31.341-2.145,38.991-1.656,40.455-5.237
						C226.117,347.878,222.73,337.543,213.585,333.23z"/>
					<path style="fill:#E8A30A;" d="M213.585,333.23c-15.478-7.3-33.429-3.999-64.027-8.231s-36.371-63.001-37.862-74.038
						c-2.333-17.273-12.695-22.734-21.972-14.598c-0.699,0.613-1.218,1.595-1.582,2.885c8.664-5.576,17.651,0.296,19.804,16.233
						c1.491,11.037,7.264,69.806,37.862,74.038s48.549,0.93,64.027,8.231c7.667,3.616,11.273,11.452,11.379,16.004
						c2.005-0.522,3.001-1.227,3.438-2.295C226.117,347.878,222.73,337.543,213.585,333.23z"/>
				</g>
				<g>
					<g>
						<polygon style="fill:#FFF24A;" points="244.363,227.628 214.03,205.868 153.697,205.868 153.697,148.726 244.363,148.726 
													"/>
						<polygon style="fill:#FFE340;" points="244.363,227.628 214.03,205.868 153.697,205.868 153.697,148.726 238.78,159.765 
													"/>
					</g>
					<g>
						<polygon style="fill:#5129CC;" points="272.9,200.423 294.562,184.882 337.65,184.882 337.65,144.074 272.9,144.074 						"/>
						<polygon style="fill:#4218A8;" points="272.9,200.423 294.562,184.882 337.65,184.882 331.539,149.437 272.9,144.074 						
							"/>
					</g>
					<g>
						<g>
							<ellipse style="fill:#1A89C6;" cx="378.03" cy="134.295" rx="31" ry="25.167"/>
							<polygon style="fill:#1A89C6;" points="374.363,154.795 356.03,169.795 358.03,148.795 							"/>
						</g>
					</g>
					<path style="fill:#3A128E;" d="M293.929,88.647c-1.841-7.655-10.811-13.782-14.584-16.063c-0.892-0.539-2.05-0.191-2.503,0.747
						l-5.14,10.626c-0.373,0.771-0.14,1.699,0.553,2.202l8.061,5.858c0,0,1.026,8.189-6.32,18.481
						c-7.52,10.165-15.625,11.719-15.625,11.719l-8.045-5.846c-0.7-0.509-1.665-0.437-2.281,0.17l-9.255,9.109
						c-0.736,0.724-0.702,1.92,0.079,2.596c3.321,2.875,11.936,9.54,19.8,8.926c6.953-0.544,20.288-19.546,21.896-21.901
						C282.307,113.014,295.56,95.428,293.929,88.647z"/>
					<g>
						<polygon style="fill:#F2721C;" points="158.363,229.904 183.363,246.766 208.363,229.904 						"/>
						<polygon style="fill:#F2721C;" points="158.363,232.295 158.363,263.628 208.363,263.628 208.363,232.662 183.363,249.545 
													"/>
					</g>
					<g>
						
							<line style="fill:none;stroke:#FFFFFF;stroke-linecap:round;stroke-miterlimit:10;" x1="359.28" y1="126.618" x2="398.655" y2="126.618"/>
						<g>
							
								<line style="fill:none;stroke:#FFFFFF;stroke-linecap:round;stroke-miterlimit:10;" x1="359.28" y1="129.783" x2="398.655" y2="129.783"/>
						</g>
						<g>
							
								<line style="fill:none;stroke:#FFFFFF;stroke-linecap:round;stroke-miterlimit:10;" x1="359.28" y1="132.948" x2="398.655" y2="132.948"/>
						</g>
						<g>
							
								<line style="fill:none;stroke:#FFFFFF;stroke-linecap:round;stroke-miterlimit:10;" x1="359.28" y1="136.113" x2="398.655" y2="136.113"/>
						</g>
						<g>
							
								<line style="fill:none;stroke:#FFFFFF;stroke-linecap:round;stroke-miterlimit:10;" x1="359.28" y1="139.278" x2="398.655" y2="139.278"/>
						</g>
					</g>
				</g>
			</g>
			<circle style="fill:#F2721C;" cx="629.425" cy="236.271" r="6.071"/>
			<circle style="fill:#F2721C;" cx="587.925" cy="214.271" r="6.071"/>
			<circle style="fill:#F2721C;" cx="612.182" cy="214.271" r="6.071"/>
			<circle style="fill:#F2721C;" cx="574.207" cy="165.365" r="6.071"/>
			<circle style="fill:#F2721C;" cx="559.576" cy="184.699" r="6.071"/>
			<circle style="fill:#F2721C;" cx="530.442" cy="186.353" r="6.071"/>
		</g>
	</g>
</g>
</svg>
