<svg width="110" height="110" viewBox="0 0 110 110" fill="none" xmlns="http://www.w3.org/2000/svg">
<path fill-rule="evenodd" clip-rule="evenodd" d="M5 20.534C5 11.9548 11.9548 5 20.534 5H41.2818C43.4266 5 45.1653 6.7387 45.1653 8.8835C45.1653 11.0283 43.4266 12.767 41.2818 12.767H20.534C16.2444 12.767 12.767 16.2444 12.767 20.534V41.2818C12.767 43.4266 11.0283 45.1653 8.8835 45.1653C6.7387 45.1653 5 43.4266 5 41.2818V20.534ZM64.8347 8.8835C64.8347 6.7387 66.5734 5 68.7182 5H89.466C98.0452 5 105 11.9548 105 20.534V41.2818C105 43.4266 103.261 45.1653 101.117 45.1653C98.9717 45.1653 97.233 43.4266 97.233 41.2818V20.534C97.233 16.2444 93.7556 12.767 89.466 12.767H68.7182C66.5734 12.767 64.8347 11.0283 64.8347 8.8835ZM8.8835 64.8347C11.0283 64.8347 12.767 66.5734 12.767 68.7182V89.466C12.767 93.7556 16.2444 97.233 20.534 97.233H41.2818C43.4266 97.233 45.1653 98.9717 45.1653 101.117C45.1653 103.261 43.4266 105 41.2818 105H20.534C11.9548 105 5 98.0452 5 89.466V68.7182C5 66.5734 6.7387 64.8347 8.8835 64.8347ZM101.117 64.8347C103.261 64.8347 105 66.5734 105 68.7182V89.466C105 98.0452 98.0452 105 89.466 105H68.7182C66.5734 105 64.8347 103.261 64.8347 101.117C64.8347 98.9717 66.5734 97.233 68.7182 97.233H89.466C93.7556 97.233 97.233 93.7556 97.233 89.466V68.7182C97.233 66.5734 98.9717 64.8347 101.117 64.8347ZM58.456 30.4182C52.375 29.6976 46.2393 31.2121 41.192 34.6795C36.1447 38.1469 32.53 43.3308 31.0211 49.2656C29.5122 55.2004 30.2121 61.4813 32.9904 66.9383C35.7687 72.3954 40.436 76.6564 46.1228 78.9277C51.8096 81.199 58.1281 81.3256 63.9013 79.284C69.6745 77.2425 74.5088 73.1719 77.5036 67.8306C78.5525 65.9598 80.9194 65.2935 82.7902 66.3424C84.661 67.3913 85.3273 69.7582 84.2783 71.6291C80.3621 78.6138 74.0404 83.9369 66.4908 86.6067C58.9412 89.2764 50.6785 89.1108 43.2419 86.1406C35.8054 83.1705 29.702 77.5984 26.0689 70.4623C22.4357 63.3261 21.5204 55.1126 23.4936 47.3518C25.4667 39.5909 30.1937 32.8119 36.7941 28.2776C43.3944 23.7433 51.4179 21.7629 59.37 22.7052C67.3221 23.6475 74.6606 27.4484 80.0183 33.3998C85.3761 39.3511 88.3878 47.0471 88.4924 55.0542C88.5103 56.4211 87.8197 57.6323 86.7612 58.3382C86.0689 58.978 85.1432 59.369 84.1262 59.369H54.5145C53.4846 59.369 52.4968 58.9598 51.7685 58.2315C51.0402 57.5032 50.631 56.5154 50.631 55.4855V37.5243C50.631 35.3795 52.3697 33.6408 54.5145 33.6408C56.6593 33.6408 58.398 35.3795 58.398 37.5243V51.602H80.4277C79.6776 46.7838 77.5424 42.2582 74.2459 38.5964C70.1488 34.0454 64.537 31.1388 58.456 30.4182Z" fill="#004DA8"/>
</svg>
