<svg width="234" height="56" viewBox="0 0 234 56" fill="none" xmlns="http://www.w3.org/2000/svg">
<path d="M207.714 56C206.333 56 205.212 54.8798 205.212 53.4979V13.6352C205.212 12.3002 206.295 11.218 207.63 11.218V11.218C208.965 11.218 210.047 12.3002 210.047 13.6352V16.3917H210.641C211.008 15.8263 211.517 15.1053 212.167 14.2289C212.832 13.3384 213.779 12.5468 215.008 11.8541C216.252 11.1473 217.935 10.7939 220.055 10.7939C222.797 10.7939 225.214 11.4795 227.307 12.8507C229.399 14.2219 231.031 16.1655 232.205 18.6817C233.378 21.1978 233.964 24.1663 233.964 27.5872C233.964 31.0363 233.378 34.026 232.205 36.5563C231.031 39.0724 229.406 41.0232 227.328 42.4085C225.25 43.7796 222.854 44.4652 220.14 44.4652C218.048 44.4652 216.373 44.1189 215.114 43.4262C213.856 42.7194 212.888 41.9208 212.21 41.0302C211.531 40.1255 211.008 39.3764 210.641 38.7827H210.216V53.4979C210.216 54.8798 209.096 56 207.714 56V56ZM210.132 27.5024C210.132 29.962 210.492 32.1318 211.213 34.0118C211.934 35.8778 212.987 37.3408 214.372 38.401C215.758 39.447 217.454 39.9701 219.461 39.9701C221.553 39.9701 223.299 39.4188 224.698 38.3162C226.112 37.1995 227.172 35.7011 227.879 33.821C228.6 31.9268 228.96 29.8206 228.96 27.5024C228.96 25.2124 228.607 23.1486 227.9 21.3109C227.208 19.4591 226.154 17.9961 224.741 16.9218C223.341 15.8333 221.582 15.2891 219.461 15.2891C217.426 15.2891 215.715 15.8051 214.33 16.837C212.945 17.8547 211.899 19.2824 211.192 21.1201C210.485 22.9436 210.132 25.071 210.132 27.5024Z" fill="#004DA8"/>
<path d="M182.707 44.55C180.644 44.55 178.771 44.1613 177.088 43.3838C175.406 42.5922 174.07 41.4543 173.081 39.9701C172.091 38.4717 171.597 36.6623 171.597 34.5419C171.597 32.676 171.964 31.1635 172.699 30.0044C173.434 28.8311 174.417 27.9123 175.647 27.2479C176.876 26.5835 178.233 26.0888 179.718 25.7637C181.216 25.4244 182.721 25.1558 184.234 24.9579C186.213 24.7035 187.817 24.5127 189.047 24.3854C190.291 24.2441 191.196 24.0108 191.761 23.6857C192.341 23.3606 192.631 22.7952 192.631 21.9894V21.8198C192.631 19.7277 192.058 18.1021 190.913 16.943C189.782 15.7839 188.065 15.2043 185.761 15.2043C183.372 15.2043 181.499 15.7273 180.142 16.7734C179.542 17.2357 179.021 17.7119 178.578 18.2019C177.694 19.1809 176.329 19.784 175.087 19.3404V19.3404C173.701 18.8455 172.991 17.2581 173.828 16.0479C174.439 15.165 175.137 14.4173 175.922 13.8048C177.35 12.6881 178.905 11.9107 180.587 11.4725C182.283 11.0201 183.951 10.7939 185.591 10.7939C186.637 10.7939 187.839 10.9212 189.196 11.1756C190.567 11.4159 191.888 11.9177 193.161 12.6811C194.447 13.4444 195.514 14.5965 196.362 16.1372C197.211 17.678 197.635 19.7418 197.635 22.3287V43.7867H192.631V39.3764H192.376C192.037 40.0831 191.472 40.8394 190.68 41.6451C189.888 42.4509 188.835 43.1365 187.521 43.7019C186.206 44.2673 184.602 44.55 182.707 44.55ZM183.471 40.0549C185.45 40.0549 187.118 39.6661 188.475 38.8887C189.846 38.1112 190.878 37.1076 191.57 35.8778C192.277 34.648 192.631 33.3545 192.631 31.9975V27.4175C192.419 27.672 191.952 27.9052 191.231 28.1173C190.524 28.3152 189.705 28.4919 188.772 28.6473C187.853 28.7887 186.955 28.9159 186.079 29.029C185.216 29.128 184.517 29.2128 183.98 29.2835C182.679 29.4531 181.463 29.7287 180.333 30.1104C179.216 30.4779 178.311 31.0363 177.619 31.7855C176.94 32.5205 176.601 33.5242 176.601 34.7964C176.601 36.5351 177.244 37.8497 178.53 38.7402C179.831 39.6167 181.478 40.0549 183.471 40.0549Z" fill="#004DA8"/>
<path d="M140.869 5.02672C139.581 5.02672 138.537 3.98248 138.537 2.69433V2.69433C138.537 1.40619 139.581 0.361938 140.869 0.361938H168.773C170.061 0.361938 171.105 1.40619 171.105 2.69433V2.69433C171.105 3.98248 170.061 5.02672 168.773 5.02672H157.45V41.1576C157.45 42.6097 156.273 43.7868 154.821 43.7868V43.7868C153.369 43.7868 152.192 42.6097 152.192 41.1576V5.02672H140.869Z" fill="#004DA8"/>
<path d="M2.54284 5.02672C1.25469 5.02672 0.210449 3.98248 0.210449 2.69433V2.69433C0.210449 1.40619 1.2547 0.361938 2.54284 0.361938H30.4467C31.7349 0.361938 32.7791 1.40619 32.7791 2.69433V2.69433C32.7791 3.98248 31.7349 5.02672 30.4467 5.02672H19.124V41.1576C19.124 42.6097 17.9469 43.7868 16.4948 43.7868V43.7868C15.0427 43.7868 13.8656 42.6097 13.8656 41.1576V5.02672H2.54284Z" fill="#004DA8"/>
<path d="M57.4459 43.7867C56.064 43.7867 54.9438 42.6665 54.9438 41.2847V13.6352C54.9438 12.3002 56.0261 11.218 57.3611 11.218V11.218C58.696 11.218 59.7783 12.3002 59.7783 13.6352V16.3069H60.2023C60.8809 14.5682 61.9764 13.2182 63.4889 12.257C65.0014 11.2816 66.8178 10.7939 68.9382 10.7939C71.0868 10.7939 72.875 11.2816 74.3027 12.257C75.7445 13.2182 76.8683 14.5682 77.6741 16.3069H78.0133C78.8473 14.6247 80.0983 13.2889 81.7664 12.2994C83.4344 11.2958 85.4346 10.7939 87.767 10.7939C90.6789 10.7939 93.0608 11.7057 94.9126 13.5292C96.7643 15.3386 97.6902 18.1586 97.6902 21.9894V41.2847C97.6902 42.6665 96.57 43.7867 95.1882 43.7867V43.7867C93.8064 43.7867 92.6862 42.6665 92.6862 41.2847V21.9894C92.6862 19.5864 92.0289 17.8689 90.7143 16.837C89.3996 15.8051 87.8518 15.2891 86.0707 15.2891C83.7807 15.2891 82.0067 15.9817 80.7486 17.367C79.4905 18.7382 78.8615 20.4769 78.8615 22.5831V41.2423C78.8615 42.6475 77.7223 43.7867 76.317 43.7867V43.7867C74.9118 43.7867 73.7726 42.6475 73.7726 41.2423V21.4805C73.7726 19.6288 73.1718 18.1374 71.9703 17.0066C70.7688 15.8616 69.2209 15.2891 67.3267 15.2891C66.0262 15.2891 64.8106 15.6354 63.6797 16.3281C62.563 17.0207 61.6583 17.982 60.9657 19.2118C60.2871 20.4274 59.9479 21.8339 59.9479 23.4313V41.2847C59.9479 42.6665 58.8277 43.7867 57.4459 43.7867V43.7867Z" fill="#004DA8"/>
<path fill-rule="evenodd" clip-rule="evenodd" d="M124.664 9.57503C120.469 9.07785 116.236 10.1227 112.754 12.515C109.271 14.9073 106.777 18.4839 105.736 22.5785C104.695 26.6731 105.178 31.0065 107.095 34.7715C109.012 38.5365 112.232 41.4763 116.155 43.0433C120.079 44.6104 124.438 44.6978 128.421 43.2892C132.405 41.8807 135.74 39.0722 137.806 35.3871C138.478 34.1885 138.051 32.6722 136.853 32.0002C135.654 31.3282 134.138 31.7551 133.466 32.9536C131.99 35.5858 129.608 37.5919 126.762 38.598C123.917 39.6041 120.803 39.5417 118.001 38.4224C115.198 37.303 112.898 35.2032 111.529 32.5139C110.16 29.8246 109.815 26.7293 110.559 23.8046C111.302 20.8798 113.084 18.3252 115.571 16.6164C118.058 14.9076 121.082 14.1612 124.079 14.5164C127.076 14.8715 129.841 16.3039 131.86 18.5467C133.353 20.2051 134.363 22.2229 134.804 24.3819H124.605V19.24C124.605 17.866 123.491 16.7521 122.117 16.7521C120.743 16.7521 119.629 17.866 119.629 19.24V26.8698C119.629 27.5297 119.892 28.1625 120.358 28.6291C120.825 29.0957 121.458 29.3578 122.117 29.3578H137.294C137.931 29.3578 138.513 29.1181 138.953 28.7239C139.613 28.2687 140.041 27.5037 140.029 26.6423C139.974 22.4178 138.385 18.3574 135.558 15.2174C132.732 12.0775 128.86 10.0722 124.664 9.57503Z" fill="#004DA8"/>
<circle cx="40.763" cy="2.73667" r="2.73667" fill="#004DA8"/>
<path d="M41.1007 43.7867C39.7188 43.7867 38.5986 42.6665 38.5986 41.2847V13.72C38.5986 12.3382 39.7188 11.218 41.1007 11.218V11.218C42.4825 11.218 43.6027 12.3382 43.6027 13.72V41.2847C43.6027 42.6665 42.4825 43.7867 41.1007 43.7867V43.7867Z" fill="#004DA8"/>
</svg>
