<?xml version="1.0" encoding="UTF-8"?>
<svg width="290px" height="156px" viewBox="0 0 290 156" version="1.1" xmlns="http://www.w3.org/2000/svg" xmlns:xlink="http://www.w3.org/1999/xlink">
    <title>image-260nw-1943752759</title>
    <g id="Page-1" stroke="none" stroke-width="1" fill="none" fill-rule="evenodd">
        <g id="image-260nw-1943752759" transform="translate(0, -0)" fill="#000000" fill-rule="nonzero">
            <g id="Group" transform="translate(145, 77.9688) scale(-1, 1) rotate(-180) translate(-145, -77.9688)">
                <path d="M164.7,154.137572 C159.2,150.737572 158,146.137572 158,128.537572 C158,114.737572 157.8,112.837572 156.5,113.337572 C151.8,115.137572 142.6,116.937572 140.9,116.437572 C136.5,115.037572 134.5,105.237572 137.6,100.437572 C138.4,99.1375721 140.5,97.6375721 142.2,97.0375721 C144.6,96.2375721 145.1,95.5375721 144.5,94.2375721 C142.8,90.4375721 142.8,85.9375721 144.4,83.4375721 C145.9,81.1375721 145.9,80.7375721 144,77.7375721 C141.4,73.3375721 141.5,69.9375721 144.5,65.5375721 C146.5,62.5375721 146.8,61.4375721 145.9,59.3375721 C143.9,53.9375721 147.7,48.7375721 155.1,46.8375721 C158.4,45.9375721 159.7,45.2375721 159,44.5375721 C157.4,42.9375721 157.9,37.8375721 159.9,33.2375721 C163.1,26.2375721 164.4,25.9375721 192.8,25.9375721 C227.7,25.9375721 226,24.0375721 226,62.4375721 C226,84.7375721 225.8,88.0375721 224.4,88.6375721 C223.6,88.9375721 222.4,88.7375721 221.9,88.2375721 C221.4,87.7375721 220.9,76.3375721 220.7,61.5375721 L220.5,35.7375721 L217.7,33.3375721 C214.9,30.9375721 214.8,30.9375721 191.9,30.9375721 L168.9,30.9375721 L166.5,33.4375721 C164.7,35.1375721 164,36.9375721 164,39.8375721 C164,42.0375721 163.5,44.1375721 162.9,44.5375721 C162.3,44.8375721 163.1,45.9375721 164.9,47.0375721 C168.9,49.4375721 170.4,53.2375721 169,57.2375721 C168.2,59.7375721 168.4,60.6375721 170.5,63.1375721 C173.3,66.4375721 173.7,70.1375721 171.6,74.0375721 C170.4,76.3375721 170.5,76.8375721 172.7,79.3375721 C177.5,84.9375721 174.8,93.5375721 167.5,95.9375721 L164,97.1375721 L164,121.437572 C164,143.837572 164.1,145.937572 165.9,148.037572 C167.8,150.437572 168,150.437572 190.9,150.737572 C206.7,150.937572 214.6,150.637572 216.1,149.937572 C218.5,148.637572 221.2,142.737572 220.4,140.637572 C220.1,139.837572 220.6,138.437572 221.5,137.537572 C225.5,133.537572 227.6,141.737572 224.3,148.637572 C221,155.637572 219.5,155.937572 192,155.937572 C170.6,155.837572 167.2,155.637572 164.7,154.137572 Z M151.5,109.137572 L157.5,107.437572 L157.8,103.037572 C158.1,98.9375721 158,98.7375721 155.8,99.2375721 C154.5,99.6375721 151.1,100.437572 148.2,101.037572 C142.4,102.437572 140.6,104.437572 141.6,108.437572 C142.3,111.337572 143.3,111.437572 151.5,109.137572 Z M160.6,92.3375721 C167.8,90.5375721 170.7,87.7375721 169.5,83.9375721 C168.4,80.5375721 165.3,80.0375721 157.6,82.0375721 C148.5,84.3375721 146.3,87.0375721 149.6,91.7375721 C151.4,94.3375721 152.2,94.4375721 160.6,92.3375721 Z M158.8,75.8375721 C164.7,74.3375721 167,72.4375721 167,68.8375721 C167,64.6375721 164.1,63.4375721 157.7,64.9375721 C150.5,66.6375721 148,68.4375721 148,71.7375721 C148,76.9375721 150.5,77.8375721 158.8,75.8375721 Z M161.8,57.8375721 C164.3,56.8375721 164.7,53.7375721 162.6,51.9375721 C160.5,50.2375721 151.6,52.8375721 151.2,55.2375721 C150.3,59.6375721 154.4,60.6375721 161.8,57.8375721 Z" id="Shape"></path>
                <path d="M71.5,150.937572 C29.6,144.337572 -3.58821512e-15,116.037572 -3.58821512e-15,82.4375721 C-3.58821512e-15,52.0375721 23.9,25.9375721 60.5,16.2375721 C69.3,13.9375721 72.4,13.6375721 86.5,13.6375721 C100.6,13.6375721 103.7,13.9375721 112.5,16.2375721 C125.1,19.6375721 137.5,25.5375721 146.7,32.5375721 C153.7,37.9375721 155.6,40.2375721 154.4,42.0375721 C153.3,43.9375721 150.7,42.8375721 144.7,37.9375721 C137,31.6375721 123,24.7375721 112.5,21.8375721 C102.3,19.1375721 81.2,18.1375721 70.2,19.9375721 C36.9,25.2375721 10.7,47.3375721 5.9,73.9375721 C0.3,105.637572 26.9,136.337572 67,144.437572 C78.6,146.837572 101,146.137572 112.5,143.037572 C123.5,140.137572 137,133.137572 145.9,125.937572 C151.7,121.237572 153.6,120.137572 154.6,121.037572 C157.2,123.137572 156,124.837572 148.3,131.037572 C132.3,143.737572 112.3,150.737572 90,151.437572 C83.1,151.637572 74.8,151.437572 71.5,150.937572 Z" id="Path"></path>
                <path d="M179,143.437572 C178,142.237572 178,141.637572 179,140.437572 C180,139.237572 182.7,138.937572 191.5,138.937572 C204.1,138.937572 206,139.337572 206,141.937572 C206,144.537572 204.1,144.937572 191.5,144.937572 C182.7,144.937572 180,144.637572 179,143.437572 Z" id="Path"></path>
                <path d="M224,130.137572 C219.5,125.637572 218.4,119.737572 220.4,112.437572 C221.4,109.137572 222.5,103.337572 222.9,99.6375721 C223.8,92.0375721 225.9,88.7375721 228.4,90.8375721 C230.3,92.4375721 229.4,102.637572 226.9,109.237572 C224.4,115.637572 224.4,121.937572 227.1,125.337572 C228.2,126.737572 229.6,127.737572 230.1,127.437572 C230.6,127.037572 233.1,122.637572 235.6,117.637572 C238.2,112.537572 241.3,106.337572 242.7,103.637572 C244.9,99.2375721 246.7,89.7375721 248.5,71.8375721 C249.2,65.3375721 251.8,60.5375721 256,58.1375721 C257.6,57.2375721 259,56.0375721 259,55.6375721 C259,54.8375721 244.9,26.7375721 243.2,24.2375721 C242.6,23.3375721 241.5,23.3375721 238.3,24.4375721 C234.6,25.7375721 233.2,25.7375721 226.1,24.2375721 C219.3,22.8375721 217.1,22.7375721 212.3,23.7375721 C206.7,24.9375721 204,24.2375721 204,21.7375721 C204,18.4375721 219,16.8375721 228.8,19.1375721 C235.9,20.7375721 239.6,19.1375721 239.6,14.5375721 C239.6,9.9375721 241.1,8.4375721 250.2,3.8375721 C258.1,-0.162427902 261.7,-0.862427902 265,0.937572098 C267.2,2.1375721 290,46.1375721 290,49.2375721 C290,53.0375721 287.2,55.8375721 278.9,59.9375721 C270.3,64.3375721 267.6,64.7375721 264.2,62.3375721 C262.1,60.9375721 261.7,60.9375721 259.5,62.3375721 C255.3,65.1375721 254.2,68.0375721 253,80.4375721 C252.4,87.0375721 251.2,95.0375721 250.4,98.2375721 C249,103.837572 237.3,127.537572 234.2,131.237572 C231.9,133.837572 227.3,133.337572 224,130.137572 Z M276.5,55.1375721 C280.3,53.1375721 283.6,50.6375721 283.8,49.7375721 C284.2,47.6375721 263.2,5.9375721 261.5,5.3375721 C259.9,4.6375721 246.1,11.5375721 245.4,13.3375721 C245.1,14.1375721 249,22.9375721 254,32.9375721 C263.5,51.9375721 267.5,58.9375721 268.8,58.9375721 C269.2,58.9375721 272.6,57.2375721 276.5,55.1375721 Z" id="Shape"></path>
                <path d="M98.6,127.337572 C96.5,125.337572 96.6,123.337572 98.9,119.537572 C100,117.837572 102.3,112.137572 104.1,106.937572 C110.6,87.5375721 109.1,66.2375721 99.9,47.5375721 C98.3,44.3375721 97,41.1375721 97,40.4375721 C97,38.8375721 99.7,35.9375721 101.1,35.9375721 C104.6,35.9375721 111.3,49.5375721 114.6,63.4375721 C116.9,72.9375721 116.9,92.1375721 114.7,101.437572 C111.3,115.437572 104.6,128.937572 101.1,128.937572 C100.6,128.937572 99.4,128.237572 98.6,127.337572 Z" id="Path"></path>
                <path d="M84.3,119.337572 C82.3,118.437572 82.8,114.337572 85.5,108.937572 C93.2,93.7375721 93.4,73.0375721 86.1,57.2375721 C82.2,49.0375721 82.1,46.2375721 85.5,45.3375721 C87.3,44.9375721 88.7,45.2375721 90,46.4375721 C92.5,48.6375721 97.4,61.4375721 99,69.7375721 C100.9,79.4375721 99.8,94.6375721 96.4,104.737572 C92.3,117.237572 88.9,121.237572 84.3,119.337572 Z" id="Path"></path>
                <path d="M69.6,110.337572 C67.5,108.337572 67.6,107.637572 70.2,102.637572 C76.6,90.1375721 76.5,74.7375721 70.1,62.1375721 C67.8,57.6375721 68,54.5375721 70.7,53.5375721 C73.7,52.3375721 75.9,54.0375721 78.6,59.6375721 C84.5,72.1375721 85,88.9375721 79.9,102.237572 C76.5,111.037572 73,113.837572 69.6,110.337572 Z" id="Path"></path>
                <path d="M56.2,102.337572 C53.5,100.437572 53.5,99.3375721 56,93.8375721 C57.3,90.7375721 58,87.2375721 58,82.4375721 C58,77.6375721 57.3,74.1375721 56,71.0375721 C53.5,65.5375721 53.5,64.4375721 56.2,62.5375721 C59.2,60.4375721 61.3,61.8375721 64.1,68.1375721 C67.5,75.7375721 67.5,89.1375721 64.1,96.7375721 C61.3,103.037572 59.2,104.437572 56.2,102.337572 Z" id="Path"></path>
            </g>
        </g>
    </g>
</svg>